<?xml version="1.0" encoding="utf-8"?>
<!-- Generator: Adobe Illustrator 16.0.0, SVG Export Plug-In . SVG Version: 6.00 Build 0)  -->
<!DOCTYPE svg PUBLIC "-//W3C//DTD SVG 1.1//EN" "http://www.w3.org/Graphics/SVG/1.1/DTD/svg11.dtd">
<svg version="1.1" id="Layer_1" xmlns="http://www.w3.org/2000/svg" xmlns:xlink="http://www.w3.org/1999/xlink" x="0px" y="0px"
	 width="284.441px" height="141.463px" viewBox="0 0 284.441 141.463" enable-background="new 0 0 284.441 141.463"
	 xml:space="preserve">
<g>
	<g>
		<path fill="#8000F2" d="M97.562,11.555c-3.461-0.788-7.46-1.167-11.952-1.098c-4.493,0.07-9.11,0.534-13.85,1.451
			c-4.741,0.918-9.422,2.275-14.037,4.115c-4.616,1.84-8.823,4.082-12.621,6.716s-6.975,5.599-9.531,8.851
			c-2.558,3.252-4.123,6.708-4.729,10.234c-0.291,1.692,0.249,3.018,1.638,3.938s3.338,1.656,5.845,2.203
			c2.506,0.546,5.423,0.989,8.75,1.337c3.325,0.347,6.788,0.802,10.388,1.348c3.599,0.546,7.173,1.266,10.723,2.139
			c3.548,0.873,6.8,2.089,9.754,3.621c2.953,1.532,5.473,3.457,7.558,5.761c2.085,2.306,3.452,5.178,4.096,8.657
			c0.746,4.027,0.347,7.939-1.191,11.876c-1.539,3.938-3.849,7.783-6.926,11.608c-3.079,3.827-6.765,7.617-11.058,11.405
			c-4.294,3.789-8.835,7.458-13.625,10.987c-4.792,3.53-9.645,6.87-14.559,9.977c-4.913,3.106-9.544,5.819-13.887,8.07
			c-4.343,2.251-8.229,4.005-11.654,5.197c-3.424,1.192-6.047,1.7-7.818,1.451c-2.762-0.389-4.854-1.389-6.218-2.919
			c-1.366-1.53-2.198-3.131-2.495-4.782c-0.298-1.65-0.185-3.08,0.336-4.274s1.328-1.738,2.346-1.585
			c3.611,0.54,7.707,0.438,12.1-0.499c4.393-0.937,8.946-2.425,13.663-4.404c4.716-1.978,9.47-4.385,14.26-7.159
			c4.79-2.774,9.371-5.695,13.739-8.738c4.367-3.042,8.438-6.145,12.212-9.308c3.772-3.161,6.988-6.2,9.644-9.162
			c2.655-2.96,4.665-5.784,6.031-8.53c1.365-2.745,1.856-5.265,1.452-7.605c-0.436-2.526-1.651-4.562-3.611-6.107
			c-1.96-1.546-4.42-2.757-7.374-3.625c-2.954-0.868-6.23-1.505-9.829-1.889c-3.599-0.384-7.261-0.681-10.983-0.881
			s-7.349-0.407-10.872-0.618c-3.524-0.21-6.678-0.587-9.457-1.137c-2.78-0.551-5.04-1.424-6.776-2.626
			c-1.737-1.202-2.657-2.88-2.755-5.012c-0.149-3.196,0.262-6.472,1.229-9.78c0.968-3.307,2.394-6.56,4.281-9.711
			c1.886-3.15,4.133-6.176,6.739-9.043s5.448-5.481,8.526-7.837c3.077-2.355,6.316-4.442,9.717-6.269
			c3.399-1.824,6.839-3.321,10.314-4.512c3.474-1.189,6.912-2.054,10.312-2.623c3.399-0.569,6.623-0.817,9.644-0.761
			c3.713,0.07,6.74,0.837,9.047,2.194c2.309,1.358,3.96,2.774,4.953,4.256c0.993,1.483,1.352,2.774,1.08,3.902
			C99.858,11.488,98.997,11.882,97.562,11.555z"/>
		<path fill="#8000F2" d="M140.451,70.955c-1.956,3.459-3.946,7.225-6.031,11.104s-4.146,7.666-6.181,11.338
			c-2.036,3.673-3.997,7.118-5.883,10.308c-1.886,3.189-3.598,5.821-5.136,7.84c-0.696,0.912-1.416,1.753-2.161,2.521
			c-0.744,0.768-1.452,1.282-2.122,1.537s-1.267,0.144-1.788-0.342c-0.521-0.485-0.894-1.544-1.154-3.127
			c-0.233-1.419-0.422-3.275-0.521-5.535c-0.1-2.262-0.125-4.668-0.075-7.209c0.049-2.541,0.174-5.109,0.373-7.692
			c0.198-2.583,0.819-6.899,0.819-6.899c-0.084-0.038-3.525,4.526-5.212,6.976c-1.688,2.45-3.533,5.076-4.766,7.617
			c-0.966,1.991-1.688,3.249-2.382,3.146c-0.694-0.103-0.753-1.444-0.149-3.951c0.34-1.411,0.781-3.18,1.302-5.283
			s1.081-4.364,1.676-6.773c0.596-2.408,1.228-4.908,1.898-7.492c0.67-2.584,1.331-5.075,1.976-7.475
			c0.645-2.399,1.276-4.667,1.897-6.802c0.62-2.135,1.749-5.505,1.749-5.505c0,0-0.408,0.897-0.781,1.841
			c-0.373,0.944-0.819,2.021-1.34,3.237c-0.521,1.214-1.107,2.509-1.751,3.886c-0.646,1.379-1.267,2.637-1.861,3.769
			c-0.845,1.608-1.589,2.691-2.234,3.224c-0.644,0.533-1.116,0.661-1.414,0.38c-0.297-0.28-0.397-0.901-0.298-1.854
			c0.099-0.952,0.478-2.127,1.116-3.505c1.245-2.684,2.63-5.831,4.17-9.37c1.538-3.538,3.054-7.03,4.543-10.474
			c1.489-3.444,2.878-6.631,4.17-9.585c1.29-2.952,2.305-5.231,3.052-6.859c1.473-3.209,3.028-5.311,4.618-6.339
			c1.588-1.027,2.953-1.411,4.096-1.187c1.142,0.224,1.935,0.877,2.382,1.947c0.447,1.071,0.283,2.161-0.446,3.283
			c-0.598,0.921-1.416,2.48-2.458,4.676c-1.043,2.196-2.208,4.825-3.499,7.916c-1.291,3.091-2.657,6.513-4.096,10.289
			c-1.439,3.776-2.879,7.634-4.318,11.571c-1.44,3.939-2.831,7.816-4.171,11.619c-1.34,3.805-3.575,10.41-3.575,10.41
			c0.018,0.009,2.668-3.988,4.282-6.339c1.612-2.351,3.29-4.678,5.027-6.978c1.737-2.299,3.45-4.44,5.138-6.43
			c1.688-1.989,3.227-3.622,4.617-4.918c2.031-1.894,3.934-3.002,5.696-3.38c1.761-0.378,3.201-0.371,4.318,0
			c1.117,0.372,1.812,0.938,2.085,1.705c0.272,0.767-0.041,1.39-0.931,1.847c-2.551,1.31-5.286,3.001-8.116,5.152
			c-2.829,2.151-6.721,4.842-8.639,7.672c-0.908,1.34-1.488,4.137-2.084,6.992c-0.596,2.855-1.067,5.874-1.415,9.042
			c-0.347,3.17-0.571,6.324-0.67,9.447c-0.1,3.124,0.224,8.062,0.224,8.062c0.12,0.047,1.912-2.111,3.202-4.133
			c1.291-2.023,2.668-4.366,4.132-7.002c1.464-2.636,2.991-5.443,4.58-8.402c1.588-2.958,3.126-5.792,4.616-8.503
			c1.489-2.712,2.867-5.195,4.133-7.471c1.266-2.274,2.321-4.067,3.164-5.409c0.745-1.185,1.439-1.992,2.085-2.432
			c0.644-0.438,1.128-0.546,1.452-0.328c0.323,0.218,0.435,0.726,0.335,1.523C141.617,68.646,141.17,69.683,140.451,70.955z"/>
		<path fill="#8000F2" d="M172.098,69.716c-1.351,2.199-2.805,4.335-4.393,6.27c-1.59,1.936-3.427,3.661-5.511,5.165
			c-1.44,1.039-2.732,1.653-3.872,1.814c-1.143,0.161-2.073-0.021-2.793-0.559c-0.72-0.537-1.166-1.411-1.34-2.617
			c-0.174-1.206,0.632-4.268,0.632-4.268c-0.056-0.048-2.208,1.504-3.647,2.947c-1.439,1.444-2.906,3.085-4.395,4.932
			c-1.488,1.847-2.893,3.744-4.207,5.688c-1.315,1.944-2.387,3.619-3.164,4.983c-0.799,1.403-1.503,2.425-2.123,3.003
			c-0.62,0.577-1.118,0.834-1.489,0.765c-0.372-0.069-0.583-0.447-0.633-1.131c-0.049-0.684,0.07-1.594,0.373-2.701
			c1.594-5.827,3.064-10.664,4.281-14.521c1.216-3.857,2.229-6.965,3.015-9.366c0.898-2.744,2.384-6.623,2.384-6.623
			c-0.002-0.001-0.892,1.361-1.416,2.153c-0.451,0.68-0.956,1.486-1.525,2.369c-0.572,0.884-1.184,1.862-1.825,2.937
			c-0.548,0.919-1.092,1.526-1.638,1.804c-0.547,0.278-0.979,0.299-1.303,0.061c-0.322-0.238-0.484-0.687-0.484-1.348
			c0-0.66,0.275-1.46,0.82-2.388c0.545-0.927,1.116-1.887,1.712-2.878c0.596-0.99,1.24-2.074,1.937-3.247
			c0.694-1.172,1.5-2.446,2.42-3.813c0.918-1.366,1.996-2.908,3.239-4.543c1.22-1.604,2.505-2.674,3.796-3.229
			c1.29-0.554,2.396-0.715,3.315-0.501c0.919,0.214,1.563,0.726,1.936,1.534c0.372,0.809,0.232,1.775-0.408,2.917
			c-0.896,1.598-1.838,3.399-2.831,5.399c-0.993,2.002-1.985,4.066-2.978,6.195c-0.993,2.131-1.949,4.241-2.867,6.327
			c-0.919,2.086-1.738,3.987-2.457,5.685c-0.72,1.7-1.305,3.111-1.751,4.217c-0.447,1.107-0.745,1.896-0.745,1.896
			s0.483-0.923,1.302-2.282c0.818-1.359,1.9-3.002,3.241-4.898c1.34-1.896,2.891-3.907,4.653-6.011
			c1.761-2.103,3.613-4.006,5.548-5.712c1.985-1.751,3.771-2.816,5.36-3.251c1.588-0.434,2.844-0.511,3.763-0.247
			c0.918,0.264,1.441,0.757,1.564,1.481s-0.289,1.444-1.231,2.17c-0.944,0.728-1.926,1.676-2.942,2.856
			c-1.018,1.181-1.908,2.43-2.678,3.744c-0.771,1.315-1.341,2.587-1.713,3.806c-0.372,1.22-0.304,2.754-0.037,2.895
			c0.293,0.155,1.662-0.587,2.605-1.41s1.887-1.804,2.83-2.938c0.942-1.133,1.849-2.34,2.718-3.616
			c0.868-1.275,1.652-2.443,2.348-3.509c0.694-1.065,1.351-1.784,1.972-2.163c0.62-0.378,1.091-0.471,1.414-0.285
			c0.323,0.187,0.448,0.633,0.373,1.34C173.178,67.719,172.771,68.621,172.098,69.716z"/>
		<path fill="#8000F2" d="M168.15,70.067c1.177-2.104,2.544-3.614,4.059-4.542c1.514-0.928,2.867-1.424,4.059-1.52
			c1.192-0.095,2.034,0.137,2.531,0.69c0.496,0.553,0.301,1.289-0.593,2.224c-1.141,1.194-2.275,2.71-3.393,4.565
			c-1.117,1.856-2.169,3.846-3.162,5.97c-0.993,2.125-1.861,4.281-2.606,6.459c-0.744,2.178-1.64,5.86-1.64,5.86
			c0.101,0.071,2.694-1.995,4.357-3.708c1.663-1.712,3.39-3.642,5.177-5.763c1.787-2.12,3.56-4.299,5.322-6.527
			c1.761-2.228,3.359-4.292,4.802-6.19c0.739-0.973,1.442-1.616,2.088-1.943c0.645-0.326,1.13-0.401,1.453-0.232
			c0.322,0.168,0.433,0.563,0.333,1.185c-0.1,0.623-0.52,1.434-1.265,2.434c-1.529,2.05-3.24,4.23-5.103,6.559
			c-1.862,2.329-3.764,4.637-5.699,6.921c-1.936,2.286-3.868,4.45-5.804,6.473c-1.936,2.024-3.724,3.673-5.362,4.904
			c-0.745,0.559-1.515,0.963-2.309,1.206c-0.793,0.242-1.503,0.271-2.124,0.081c-0.62-0.191-1.078-0.635-1.376-1.335
			s-0.317-1.733-0.074-3.078c0.15-0.833,0.371-2.03,0.67-3.579c0.298-1.548,0.683-3.281,1.154-5.188
			c0.472-1.907,1.079-3.905,1.824-5.979C166.216,73.937,167.104,71.937,168.15,70.067z M183.19,45.837
			c1.536,0.58,2.358,1.353,2.459,2.319c0.1,0.966-0.163,1.913-0.783,2.856c-0.621,0.945-1.412,1.758-2.381,2.443
			c-0.968,0.686-1.785,1.01-2.42,0.934c-0.441-0.053-0.808-0.363-1.08-0.914s-0.457-1.207-0.557-1.96c-0.1-0.754-0.1-1.555,0-2.4
			c0.1-0.844,0.334-1.574,0.706-2.186c0.372-0.61,0.894-1.04,1.563-1.288C181.369,45.396,182.2,45.464,183.19,45.837z"/>
		<path fill="#8000F2" d="M212.754,68.123c-1.514,1.584-3.155,3.229-4.843,4.937s-3.386,3.399-5.099,5.066
			c-1.712,1.667-3.416,3.282-5.103,4.833c-1.688,1.551-3.32,2.984-4.84,4.282c-1.488,1.271-2.781,2.233-3.873,2.799
			c-1.092,0.564-1.943,0.817-2.564,0.738c-0.62-0.079-0.997-0.471-1.121-1.172s0.03-1.633,0.411-2.758
			c0.559-1.649,1.266-3.754,2.159-6.214c0.895-2.46,1.823-4.956,2.791-7.482c0.968-2.525,1.911-4.894,2.83-7.11
			c0.918-2.215,2.42-5.276,2.42-5.276c-0.004-0.003-1.525,1.965-2.493,3.331c-0.968,1.366-2.092,2.943-3.312,4.739
			c-0.698,1.028-1.442,1.839-2.236,2.392c-0.794,0.554-1.414,0.809-1.86,0.753c-0.447-0.055-0.636-0.445-0.562-1.168
			c0.075-0.724,0.61-1.822,1.605-3.228c0.687-0.971,1.647-2.358,2.863-4.122c1.216-1.762,2.572-3.698,4.062-5.771
			c1.488-2.074,3.039-4.185,4.652-6.321c1.613-2.135,3.166-4.126,4.655-5.987c1.489-1.86,2.851-3.507,4.092-4.967
			c1.24-1.459,2.213-2.56,2.908-3.342c0.695-0.782,1.601-1.336,2.718-1.664c1.116-0.327,2.157-0.394,3.125-0.218
			c0.969,0.176,1.713,0.603,2.234,1.265c0.521,0.663,0.568,1.558,0.147,2.714c-0.422,1.156-1.477,2.591-3.163,4.396
			c-1.688,1.805-5.21,3.985-7.744,6.733c-0.666,0.722-1.439,2.267-2.383,3.927c-0.943,1.66-1.961,3.534-3.053,5.639
			c-1.092,2.105-2.222,4.353-3.388,6.75c-1.167,2.399-2.3,4.795-3.391,7.172c-1.092,2.378-2.11,4.646-3.053,6.783
			c-0.943,2.139-2.309,5.449-2.309,5.449c0.067,0.045,5.228-4.954,7.67-7.251c1.042-0.98,2.136-2.02,3.278-3.064
			c1.142-1.043,2.257-2.075,3.349-3.094c1.092-1.019,2.137-2.014,3.13-2.991c0.993-0.976,1.894-1.888,2.68-2.739
			c0.745-0.807,1.464-1.358,2.16-1.645c0.694-0.286,1.203-0.354,1.526-0.209c0.323,0.145,0.421,0.489,0.298,1.028
			C214.007,66.597,213.547,67.292,212.754,68.123z"/>
		<path fill="#8000F2" d="M235.836,67.219c-1.516,1.354-3.152,2.763-4.84,4.237c-1.688,1.474-3.39,2.94-5.103,4.393
			c-1.712,1.454-3.413,2.868-5.1,4.233c-1.688,1.365-3.317,2.632-4.839,3.787c-1.487,1.129-2.781,1.993-3.873,2.507
			c-1.092,0.513-1.947,0.75-2.568,0.693c-0.62-0.056-0.993-0.39-1.117-0.998c-0.123-0.608,0.028-1.422,0.409-2.409
			c0.558-1.443,1.266-3.291,2.159-5.441c0.895-2.15,1.825-4.328,2.793-6.526c0.968-2.198,1.911-4.255,2.83-6.175
			c0.918-1.919,2.42-4.562,2.42-4.562c-0.004-0.003-1.525,1.695-2.493,2.878s-2.095,2.553-3.315,4.118
			c-0.697,0.894-1.44,1.605-2.234,2.091c-0.794,0.487-1.415,0.712-1.861,0.667c-0.447-0.044-0.633-0.384-0.559-1.015
			c0.075-0.631,0.607-1.591,1.602-2.817c0.687-0.847,1.651-2.056,2.867-3.587c1.216-1.53,2.566-3.207,4.056-4.994
			c1.488-1.788,3.042-3.601,4.655-5.425c1.613-1.823,3.165-3.514,4.654-5.086c1.489-1.572,2.854-2.955,4.096-4.174
			c1.24-1.22,2.209-2.133,2.904-2.781c0.695-0.648,1.599-1.095,2.716-1.342c1.116-0.247,2.163-0.273,3.131-0.097
			c0.969,0.176,1.709,0.555,2.23,1.127c0.521,0.573,0.572,1.328,0.151,2.29c-0.422,0.962-1.479,2.146-3.166,3.639
			c-1.688,1.493-5.159,3.22-7.741,5.599c-0.646,0.595-1.443,1.919-2.387,3.331c-0.943,1.413-1.96,3.012-3.052,4.815
			c-1.092,1.803-2.221,3.734-3.387,5.803c-1.167,2.069-2.3,4.144-3.391,6.206c-1.092,2.063-2.108,4.037-3.051,5.9
			c-0.943,1.865-2.31,4.76-2.31,4.76c0.064,0.049,5.225-4.376,7.67-6.392c1.041-0.858,2.137-1.767,3.279-2.677
			c1.142-0.91,2.256-1.807,3.348-2.689c1.092-0.882,2.135-1.74,3.128-2.58c0.993-0.839,1.896-1.621,2.683-2.349
			c0.744-0.689,1.462-1.161,2.158-1.406c0.694-0.245,1.203-0.301,1.526-0.179s0.42,0.411,0.297,0.868
			C237.089,65.919,236.628,66.511,235.836,67.219z"/>
		<path fill="#8000F2" d="M246.781,69.393c-0.102,0.45-0.311,1.04-0.633,1.763c-0.322,0.725-0.669,1.443-1.041,2.158
			c-0.372,0.715-0.711,1.373-1.009,1.97c-0.299,0.597-0.465,1.122-0.443,1.141c0.066,0.059,0.915-0.426,1.71-1.139
			c0.793-0.712,1.737-1.61,2.83-2.669c1.091-1.059,2.311-2.224,3.651-3.477c1.34-1.252,2.726-2.481,4.166-3.656
			c0.74-0.604,1.429-1.001,2.05-1.204c0.62-0.202,1.092-0.25,1.415-0.15c0.322,0.1,0.447,0.335,0.372,0.711
			c-0.075,0.376-0.497,0.865-1.23,1.485c-1.438,1.217-2.842,2.482-4.207,3.723c-1.366,1.241-2.641,2.42-3.832,3.518
			c-1.192,1.099-2.271,2.068-3.24,2.893c-0.968,0.824-1.777,1.461-2.42,1.858c-1.173,0.726-2.274,1.049-3.241,0.951
			c-0.968-0.098-1.475-0.69-1.675-1.539c-0.071-0.304-0.138-0.741-0.112-1.258c0.025-0.517,0.188-1.584,0.188-1.584
			c-0.029-0.012-1.614,2.05-2.607,3.095c-0.993,1.045-2.06,2.007-3.201,2.883c-1.142,0.877-2.309,1.601-3.5,2.161
			c-1.192,0.559-2.393,0.847-3.574,0.811c-1.082-0.033-1.772-0.556-2.046-1.543c-0.272-0.986-0.212-2.257,0.185-3.78
			c0.397-1.522,1.091-3.208,2.084-5.019c0.993-1.811,2.208-3.566,3.647-5.239c1.439-1.674,3.092-3.165,4.954-4.465
			s3.836-2.267,5.92-2.927c1.339-0.424,2.555-0.65,3.646-0.698c1.092-0.047,2.038,0.01,2.833,0.165
			c0.793,0.155,1.415,0.375,1.861,0.66c0.447,0.286,0.73,0.572,0.854,0.863c0.123,0.292,0.051,0.556-0.222,0.798
			c-0.273,0.242-0.735,0.407-1.378,0.488c-2.476,0.31-4.792,0.92-6.926,1.895c-2.135,0.976-4.059,2.145-5.771,3.513
			c-1.712,1.368-3.203,2.841-4.469,4.405c-1.266,1.564-2.282,3.045-3.052,4.414c-0.77,1.37-1.252,2.517-1.45,3.413
			s-0.092,1.374,0.296,1.397c0.484,0.029,1.13-0.229,1.899-0.729c0.77-0.5,1.59-1.159,2.457-1.965
			c0.868-0.806,1.748-1.711,2.642-2.708c0.894-0.996,1.701-1.978,2.421-2.951c0.72-0.973,1.328-1.907,1.825-2.808
			c0.495-0.9,0.814-1.681,0.894-2.309c0.062-0.485,0.446-0.874,1.191-1.113s1.526-0.325,2.346-0.266
			c0.818,0.06,1.553,0.263,2.198,0.602C246.683,68.27,246.925,68.755,246.781,69.393z"/>
		<path fill="#8000F2" d="M261.894,63.518c-0.037,0.426-0.05,0.987,0,1.649c0.05,0.663,0.195,2.174,0.226,2.188
			c0.251,0.12,2.915-1.79,4.281-2.614c1.365-0.824,2.619-1.574,3.763-2.262c1.141-0.688,2.145-1.294,3.014-1.83
			c0.868-0.536,1.587-0.995,2.122-1.397c0.742-0.558,1.538-0.846,2.383-0.838c0.843,0.007,1.514,0.181,2.011,0.513
			c0.495,0.332,0.721,0.759,0.672,1.293c-0.05,0.534-0.601,1.074-1.64,1.613c-0.441,0.229-1.181,0.577-2.197,1.066
			c-1.018,0.49-2.246,1.078-3.686,1.782c-1.44,0.705-3.028,1.509-4.766,2.438c-1.738,0.929-5.03,2.211-5.438,3.042
			c-0.152,0.31,0.228,1.492,0.376,2.18s0.26,1.312,0.37,1.825c0.13,0.603,0.274,1.185,0.374,1.711
			c6.702-5.163,10.048-7.392,16.75-11.139c0.695-0.471,1.38-0.78,2.05-0.94c0.671-0.159,1.168-0.194,1.491-0.11
			c0.323,0.084,0.445,0.268,0.37,0.555c-0.075,0.288-0.522,0.654-1.303,1.125c-1.532,0.924-3.227,1.985-5.062,3.123
			c-1.838,1.138-3.601,2.281-5.287,3.412c-1.688,1.131-3.18,2.191-4.47,3.148c-1.291,0.957-2.156,1.686-2.604,2.151
			c-0.446,0.465-0.946,0.871-1.492,1.217c-0.547,0.346-1.09,0.561-1.636,0.64c-0.547,0.079-1.058-0.024-1.528-0.318
			c-0.473-0.294-0.854-0.867-1.153-1.707c-0.245-0.686-0.496-1.4-0.744-2.135c-0.249-0.734-0.65-2.167-0.744-2.2
			c-0.559-0.199-4.63,2.968-6.889,4.504c-2.258,1.536-4.281,2.995-6.068,4.336c-1.787,1.34-3.276,2.505-4.469,3.457
			c-1.191,0.951-1.92,1.55-2.159,1.768c-0.445,0.406-0.892,0.706-1.338,0.838c-0.447,0.132-0.796,0.149-1.044,0.056
			s-0.36-0.301-0.336-0.621c0.025-0.321,0.261-0.707,0.707-1.121c0.194-0.18,0.932-0.812,2.197-1.859
			c1.266-1.048,2.866-2.354,4.803-3.87c1.936-1.515,4.108-3.163,6.516-4.892c2.408-1.73,6.902-4.013,7.26-5.023
			c0.198-0.561-0.863-2.572-1.266-3.383c-0.523-1.056-0.546-2.024,0-2.843c0.547-0.818,1.241-1.403,2.086-1.759
			c0.843-0.356,1.65-0.438,2.42-0.264S261.964,62.716,261.894,63.518z"/>
	</g>
</g>
</svg>
