<?xml version="1.0" encoding="utf-8"?>
<!-- Generator: Adobe Illustrator 16.0.0, SVG Export Plug-In . SVG Version: 6.00 Build 0)  -->
<!DOCTYPE svg PUBLIC "-//W3C//DTD SVG 1.1//EN" "http://www.w3.org/Graphics/SVG/1.1/DTD/svg11.dtd">
<svg version="1.1" id="Layer_1" xmlns="http://www.w3.org/2000/svg" xmlns:xlink="http://www.w3.org/1999/xlink" x="0px" y="0px"
	 width="480px" height="800px" viewBox="0 0 480 800" enable-background="new 0 0 480 800" xml:space="preserve">
<rect y="0" fill="#0FCECE" width="480" height="800"/>
<g>
	<g>
		<path fill="#DD12C5" d="M208.766,277.757c-3.195-0.727-6.887-1.079-11.035-1.015c-4.148,0.064-8.411,0.495-12.787,1.342
			c-4.377,0.848-8.697,2.1-12.958,3.798c-4.262,1.699-8.146,3.769-11.653,6.2s-6.441,5.17-8.801,8.172
			c-2.361,3.002-3.806,6.194-4.366,9.45c-0.269,1.562,0.232,2.786,1.514,3.636c1.282,0.85,3.082,1.527,5.396,2.032
			c2.314,0.504,5.006,0.916,8.077,1.237c3.07,0.32,6.268,0.739,9.591,1.243c3.323,0.504,6.624,1.17,9.9,1.976
			c3.276,0.806,6.278,1.93,9.005,3.344c2.727,1.415,5.054,3.19,6.979,5.318c1.925,2.129,3.185,4.779,3.779,7.991
			c0.688,3.718,0.322,7.331-1.099,10.966c-1.421,3.636-3.553,7.187-6.394,10.718c-2.842,3.533-6.245,7.031-10.208,10.528
			c-3.965,3.498-8.16,6.886-12.582,10.145c-4.424,3.259-8.903,6.342-13.44,9.21c-4.536,2.867-8.811,5.376-12.821,7.455
			c-4.01,2.078-7.598,3.695-10.76,4.796c-3.161,1.101-5.584,1.572-7.219,1.342c-2.55-0.358-4.479-1.284-5.74-2.697
			c-1.261-1.413-2.029-2.892-2.304-4.416c-0.275-1.523-0.172-2.842,0.31-3.944s1.225-1.605,2.166-1.464
			c3.334,0.498,7.117,0.405,11.173-0.46s8.259-2.24,12.614-4.066c4.354-1.827,8.745-4.05,13.167-6.61
			c4.422-2.561,8.651-5.257,12.685-8.066c4.033-2.81,7.791-5.674,11.274-8.594c3.482-2.918,6.451-5.725,8.903-8.459
			c2.451-2.733,4.307-5.341,5.568-7.876c1.26-2.534,1.715-4.859,1.342-7.02c-0.402-2.333-1.526-4.21-3.336-5.638
			s-4.078-2.547-6.805-3.348c-2.728-0.801-5.753-1.388-9.075-1.743s-6.705-0.631-10.141-0.816s-6.785-0.375-10.037-0.57
			c-3.254-0.194-6.166-0.54-8.731-1.048c-2.566-0.508-4.653-1.314-6.257-2.424s-2.451-2.661-2.542-4.629
			c-0.138-2.951,0.239-5.975,1.133-9.03c0.894-3.053,2.212-6.055,3.955-8.964c1.741-2.909,3.814-5.701,6.221-8.348
			s5.03-5.063,7.872-7.239c2.841-2.174,5.833-4.104,8.972-5.789c3.138-1.685,6.313-3.064,9.522-4.164
			c3.208-1.098,6.383-1.897,9.523-2.423c3.138-0.525,6.113-0.755,8.902-0.703c3.429,0.064,6.223,0.775,8.354,2.028
			c2.13,1.253,3.654,2.56,4.571,3.928c0.917,1.371,1.249,2.562,0.997,3.603C210.887,277.696,210.092,278.059,208.766,277.757z"/>
		<path fill="#DD12C5" d="M248.366,332.6c-1.805,3.194-3.643,6.67-5.567,10.252s-3.828,7.078-5.707,10.468
			c-1.88,3.391-3.691,6.573-5.432,9.518c-1.741,2.944-3.323,5.374-4.744,7.238c-0.642,0.842-1.307,1.619-1.994,2.329
			c-0.688,0.708-1.34,1.182-1.959,1.417c-0.618,0.235-1.168,0.133-1.649-0.315s-0.825-1.424-1.065-2.885
			c-0.216-1.31-0.39-3.025-0.481-5.111c-0.092-2.087-0.116-4.311-0.07-6.658s0.161-4.716,0.344-7.101
			c0.183-2.385,0.756-6.37,0.756-6.37c-0.078-0.035-3.255,4.178-4.812,6.439c-1.559,2.262-3.262,4.687-4.4,7.033
			c-0.892,1.838-1.559,2.999-2.2,2.904c-0.64-0.095-0.694-1.329-0.136-3.646c0.313-1.303,0.722-2.938,1.203-4.88
			c0.48-1.942,0.997-4.027,1.547-6.252c0.55-2.223,1.133-4.531,1.752-6.916c0.619-2.386,1.225-4.686,1.821-6.902
			c0.596-2.216,1.181-4.308,1.754-6.279c0.573-1.97,1.616-5.083,1.616-5.083c0,0-0.378,0.827-0.722,1.699
			c-0.344,0.872-0.755,1.867-1.236,2.988c-0.48,1.121-1.022,2.317-1.618,3.588c-0.596,1.273-1.169,2.436-1.718,3.48
			c-0.78,1.485-1.467,2.484-2.063,2.975c-0.595,0.492-1.03,0.61-1.304,0.351c-0.274-0.259-0.369-0.83-0.276-1.71
			c0.092-0.879,0.442-1.964,1.031-3.236c1.149-2.479,2.43-5.385,3.851-8.652c1.421-3.267,2.818-6.49,4.193-9.67
			c1.375-3.18,2.658-6.123,3.85-8.85c1.191-2.726,2.129-4.829,2.819-6.333c1.36-2.963,2.795-4.905,4.262-5.854
			c1.466-0.949,2.726-1.301,3.78-1.095c1.055,0.207,1.789,0.809,2.201,1.797c0.413,0.989,0.261,1.996-0.413,3.032
			c-0.552,0.85-1.306,2.29-2.268,4.317c-0.963,2.028-2.041,4.454-3.232,7.308c-1.192,2.854-2.452,6.014-3.781,9.5
			c-1.33,3.487-2.658,7.05-3.987,10.685c-1.329,3.636-2.614,7.216-3.851,10.727c-1.237,3.513-3.3,9.611-3.3,9.611
			c0.016,0.008,2.463-3.681,3.953-5.852c1.489-2.171,3.036-4.321,4.641-6.444c1.604-2.123,3.185-4.098,4.744-5.936
			c1.558-1.836,2.979-3.345,4.263-4.542c1.875-1.749,3.633-2.772,5.26-3.121c1.626-0.349,2.956-0.342,3.987,0
			c1.031,0.343,1.673,0.867,1.925,1.575s-0.037,1.282-0.859,1.704c-2.355,1.209-4.88,2.771-7.493,4.756s-6.207,4.471-7.978,7.084
			c-0.838,1.237-1.375,3.821-1.924,6.457c-0.55,2.636-0.985,5.422-1.305,8.347c-0.32,2.926-0.528,5.837-0.62,8.721
			c-0.093,2.884,0.207,7.445,0.207,7.445c0.111,0.044,1.765-1.948,2.957-3.815c1.192-1.867,2.465-4.031,3.816-6.466
			c1.351-2.433,2.76-5.027,4.227-7.759c1.467-2.731,2.888-5.345,4.263-7.849c1.375-2.504,2.646-4.797,3.815-6.898
			c1.169-2.1,2.142-3.754,2.921-4.994c0.688-1.095,1.331-1.842,1.927-2.247c0.595-0.405,1.042-0.503,1.341-0.302
			c0.298,0.201,0.401,0.67,0.31,1.407C249.442,330.467,249.03,331.425,248.366,332.6z"/>
		<path fill="#DD12C5" d="M277.584,331.456c-1.247,2.031-2.59,4.003-4.057,5.789c-1.467,1.787-3.164,3.378-5.089,4.768
			c-1.33,0.959-2.521,1.526-3.573,1.675c-1.054,0.148-1.914-0.021-2.578-0.516s-1.074-1.303-1.234-2.417
			c-0.16-1.113,0.581-3.938,0.581-3.938c-0.052-0.045-2.04,1.387-3.368,2.72c-1.33,1.333-2.682,2.848-4.057,4.553
			c-1.375,1.706-2.671,3.458-3.885,5.252c-1.215,1.794-2.204,3.342-2.922,4.602c-0.738,1.295-1.387,2.238-1.959,2.771
			c-0.572,0.533-1.031,0.771-1.375,0.708c-0.344-0.064-0.538-0.413-0.584-1.044s0.064-1.474,0.344-2.496
			c1.473-5.381,2.83-9.845,3.953-13.405c1.123-3.56,2.059-6.432,2.784-8.648c0.83-2.534,2.2-6.114,2.2-6.114
			c-0.002-0.001-0.822,1.256-1.307,1.987c-0.416,0.627-0.883,1.372-1.409,2.187c-0.527,0.816-1.093,1.72-1.685,2.712
			c-0.506,0.849-1.009,1.408-1.513,1.664c-0.505,0.257-0.904,0.277-1.203,0.057c-0.298-0.22-0.446-0.635-0.446-1.245
			c0-0.609,0.252-1.347,0.756-2.204c0.504-0.856,1.031-1.742,1.581-2.656c0.55-0.914,1.146-1.915,1.788-2.999
			c0.641-1.082,1.386-2.26,2.234-3.522c0.848-1.261,1.841-2.684,2.99-4.194c1.127-1.48,2.313-2.469,3.506-2.981
			c1.191-0.512,2.212-0.662,3.06-0.464c0.848,0.197,1.444,0.672,1.788,1.418c0.344,0.747,0.212,1.638-0.379,2.692
			c-0.826,1.474-1.697,3.138-2.614,4.985c-0.917,1.848-1.831,3.755-2.748,5.721c-0.917,1.967-1.801,3.915-2.648,5.84
			c-0.849,1.926-1.604,3.681-2.267,5.249c-0.664,1.569-1.205,2.872-1.618,3.893c-0.412,1.022-0.685,1.75-0.685,1.75
			s0.444-0.85,1.2-2.105c0.756-1.255,1.755-2.772,2.993-4.523c1.237-1.75,2.669-3.609,4.297-5.551
			c1.626-1.941,3.335-3.697,5.121-5.272c1.833-1.617,3.483-2.6,4.95-3.002c1.467-0.401,2.623-0.471,3.472-0.228
			c0.848,0.244,1.33,0.7,1.444,1.368s-0.267,1.33-1.137,2.001c-0.871,0.672-1.774,1.548-2.714,2.638
			c-0.939,1.09-1.765,2.246-2.475,3.459c-0.711,1.214-1.237,2.388-1.581,3.513c-0.344,1.126-0.28,2.542-0.034,2.672
			c0.271,0.143,1.535-0.542,2.406-1.301c0.87-0.759,1.739-1.666,2.61-2.712c0.87-1.047,1.709-2.161,2.511-3.339
			c0.802-1.177,1.523-2.255,2.166-3.24c0.642-0.984,1.248-1.645,1.822-1.995c0.572-0.349,1.009-0.436,1.308-0.263
			c0.298,0.172,0.411,0.583,0.342,1.236C278.581,329.611,278.205,330.444,277.584,331.456z"/>
		<path fill="#DD12C5" d="M273.94,331.781c1.087-1.943,2.348-3.339,3.747-4.196c1.397-0.857,2.646-1.314,3.746-1.403
			c1.101-0.088,1.879,0.126,2.338,0.637c0.458,0.511,0.277,1.189-0.548,2.053c-1.053,1.103-2.099,2.503-3.13,4.216
			c-1.031,1.713-2.006,3.553-2.922,5.512c-0.917,1.961-1.719,3.953-2.406,5.963c-0.688,2.011-1.513,5.41-1.513,5.41
			c0.093,0.065,2.487-1.843,4.023-3.424c1.535-1.581,3.126-3.362,4.776-5.32c1.65-1.958,3.29-3.968,4.918-6.026
			c1.626-2.057,3.102-3.964,4.432-5.715c0.683-0.898,1.328-1.493,1.925-1.794c0.595-0.301,1.043-0.371,1.341-0.215
			s0.399,0.521,0.308,1.095c-0.092,0.575-0.479,1.324-1.167,2.247c-1.411,1.893-2.99,3.906-4.709,6.056
			c-1.719,2.15-3.473,4.281-5.26,6.39s-3.576,4.108-5.364,5.977c-1.787,1.869-3.436,3.391-4.948,4.527
			c-0.688,0.516-1.397,0.888-2.131,1.112c-0.732,0.224-1.386,0.25-1.959,0.075c-0.573-0.176-0.999-0.585-1.274-1.232
			c-0.274-0.646-0.292-1.599-0.066-2.841c0.14-0.769,0.344-1.876,0.618-3.306c0.274-1.429,0.631-3.027,1.066-4.789
			c0.436-1.761,0.996-3.606,1.684-5.521C272.152,335.353,272.975,333.509,273.94,331.781z M287.828,309.41
			c1.418,0.535,2.175,1.249,2.267,2.14s-0.147,1.769-0.72,2.639c-0.573,0.872-1.307,1.623-2.2,2.255
			c-0.894,0.633-1.65,0.933-2.236,0.863c-0.408-0.049-0.744-0.338-0.995-0.846s-0.424-1.112-0.516-1.808
			c-0.093-0.696-0.093-1.434,0-2.214c0.092-0.779,0.31-1.455,0.653-2.02c0.344-0.563,0.827-0.96,1.445-1.188
			C286.146,309.002,286.913,309.064,287.828,309.41z"/>
		<path fill="#DD12C5" d="M315.122,329.986c-1.397,1.463-2.915,2.98-4.473,4.558c-1.559,1.578-3.126,3.139-4.707,4.678
			c-1.582,1.54-3.152,3.03-4.71,4.462c-1.559,1.432-3.066,2.754-4.469,3.953c-1.374,1.174-2.565,2.063-3.573,2.585
			c-1.008,0.521-1.802,0.753-2.375,0.68c-0.573-0.073-0.917-0.435-1.031-1.083s0.028-1.506,0.38-2.545
			c0.516-1.522,1.171-3.466,1.995-5.737c0.825-2.271,1.685-4.577,2.578-6.909c0.894-2.332,1.765-4.516,2.613-6.563
			c0.848-2.046,2.23-4.874,2.23-4.874c-0.004-0.002-1.408,1.814-2.302,3.076c-0.894,1.262-1.933,2.719-3.058,4.377
			c-0.644,0.948-1.329,1.699-2.062,2.209c-0.733,0.511-1.308,0.746-1.721,0.695c-0.412-0.051-0.584-0.412-0.516-1.079
			c0.069-0.668,0.562-1.682,1.48-2.98c0.634-0.896,1.521-2.178,2.645-3.806s2.372-3.413,3.747-5.328
			c1.375-1.915,2.808-3.864,4.297-5.836c1.489-1.971,2.922-3.809,4.297-5.527c1.375-1.718,2.636-3.239,3.781-4.587
			s2.039-2.363,2.682-3.086c0.642-0.722,1.479-1.234,2.511-1.536c1.031-0.302,1.992-0.362,2.886-0.199s1.581,0.554,2.062,1.165
			c0.481,0.612,0.524,1.44,0.136,2.508c-0.39,1.067-1.362,2.394-2.92,4.06c-1.559,1.666-4.813,3.677-7.152,6.214
			c-0.614,0.667-1.325,2.094-2.195,3.627c-0.871,1.533-1.813,3.262-2.821,5.206c-1.009,1.943-2.05,4.019-3.126,6.234
			c-1.077,2.216-2.122,4.424-3.13,6.62c-1.009,2.196-1.947,4.29-2.817,6.263c-0.871,1.975-2.134,5.03-2.134,5.03
			c0.062,0.042,4.827-4.574,7.082-6.695c0.963-0.905,1.971-1.864,3.025-2.829c1.054-0.963,2.085-1.916,3.094-2.857
			c1.008-0.94,1.972-1.86,2.89-2.762c0.916-0.901,1.745-1.742,2.471-2.527c0.688-0.745,1.354-1.256,1.996-1.521
			c0.641-0.264,1.11-0.326,1.409-0.191c0.298,0.134,0.391,0.45,0.276,0.948C316.279,328.575,315.854,329.219,315.122,329.986z"/>
		<path fill="#DD12C5" d="M336.432,329.15c-1.399,1.251-2.911,2.551-4.469,3.911c-1.559,1.361-3.128,2.716-4.709,4.057
			c-1.582,1.342-3.15,2.648-4.708,3.909c-1.559,1.261-3.068,2.429-4.473,3.496c-1.373,1.042-2.565,1.84-3.573,2.315
			c-1.008,0.474-1.798,0.691-2.371,0.639s-0.917-0.359-1.031-0.921c-0.114-0.562,0.028-1.313,0.38-2.225
			c0.515-1.332,1.167-3.038,1.991-5.023c0.825-1.985,1.685-3.997,2.578-6.026c0.894-2.029,1.765-3.925,2.613-5.698
			c0.848-1.772,2.234-4.213,2.234-4.213c-0.004-0.003-1.412,1.565-2.306,2.657c-0.894,1.093-1.932,2.356-3.058,3.802
			c-0.643,0.825-1.329,1.48-2.062,1.929c-0.733,0.449-1.306,0.66-1.719,0.618c-0.412-0.041-0.584-0.354-0.516-0.937
			c0.069-0.582,0.562-1.469,1.479-2.601c0.634-0.782,1.523-1.899,2.646-3.313s2.37-2.96,3.745-4.61
			c1.375-1.651,2.81-3.324,4.299-5.008c1.489-1.684,2.924-3.244,4.299-4.695c1.375-1.451,2.632-2.729,3.777-3.854
			s2.043-1.97,2.686-2.568c0.642-0.598,1.476-1.011,2.507-1.239c1.031-0.228,1.996-0.252,2.89-0.089s1.581,0.512,2.062,1.041
			c0.481,0.529,0.524,1.226,0.136,2.114c-0.39,0.889-1.364,1.981-2.922,3.359c-1.559,1.378-4.767,2.973-7.15,5.168
			c-0.596,0.549-1.329,1.773-2.199,3.078c-0.871,1.304-1.81,2.779-2.817,4.444c-1.009,1.665-2.054,3.448-3.13,5.358
			c-1.077,1.911-2.122,3.823-3.13,5.729c-1.009,1.906-1.947,3.727-2.817,5.448c-0.871,1.722-2.131,4.395-2.131,4.395
			c0.06,0.045,4.825-4.04,7.083-5.901c0.962-0.792,1.967-1.632,3.021-2.472c1.054-0.84,2.085-1.666,3.094-2.481
			c1.008-0.814,1.972-1.609,2.89-2.384c0.916-0.775,1.748-1.495,2.475-2.167c0.688-0.636,1.352-1.073,1.994-1.299
			c0.641-0.226,1.108-0.278,1.407-0.165c0.298,0.113,0.391,0.378,0.276,0.801C337.589,327.95,337.163,328.496,336.432,329.15z"/>
		<path fill="#DD12C5" d="M346.537,331.157c-0.095,0.416-0.285,0.959-0.583,1.628c-0.298,0.669-0.62,1.333-0.964,1.992
			s-0.655,1.268-0.931,1.819c-0.274,0.551-0.429,1.035-0.408,1.053c0.061,0.054,0.844-0.394,1.577-1.052
			c0.732-0.657,1.608-1.485,2.616-2.463c1.008-0.978,2.13-2.055,3.367-3.211s2.521-2.29,3.85-3.375
			c0.684-0.558,1.315-0.924,1.889-1.111c0.573-0.187,1.008-0.231,1.307-0.14c0.298,0.092,0.416,0.311,0.348,0.657
			c-0.068,0.347-0.462,0.798-1.139,1.371c-1.327,1.124-2.622,2.293-3.882,3.438c-1.262,1.146-2.44,2.233-3.541,3.247
			c-1.1,1.014-2.097,1.911-2.99,2.672s-1.642,1.346-2.234,1.712c-1.083,0.67-2.095,0.972-2.989,0.881
			c-0.894-0.09-1.363-0.638-1.547-1.422c-0.065-0.281-0.128-0.684-0.104-1.162c0.022-0.478,0.172-1.462,0.172-1.462
			c-0.026-0.011-1.49,1.893-2.406,2.857c-0.918,0.965-1.902,1.855-2.956,2.664c-1.055,0.81-2.132,1.477-3.231,1.993
			c-1.101,0.516-2.208,0.781-3.298,0.748c-1-0.03-1.643-0.513-1.895-1.424s-0.193-2.083,0.174-3.49
			c0.367-1.405,1.008-2.962,1.925-4.635c0.917-1.672,2.042-3.293,3.37-4.838c1.329-1.546,2.85-2.921,4.568-4.121
			c1.719-1.2,3.544-2.092,5.468-2.701c1.236-0.391,2.362-0.601,3.37-0.646c1.008-0.044,1.879,0.009,2.613,0.152
			c0.732,0.144,1.302,0.347,1.715,0.61c0.412,0.264,0.678,0.53,0.792,0.798c0.114,0.269,0.047,0.512-0.204,0.735
			c-0.252,0.224-0.679,0.376-1.271,0.45c-2.285,0.286-4.426,0.848-6.396,1.748c-1.971,0.901-3.748,1.982-5.33,3.245
			c-1.581,1.263-2.956,2.623-4.125,4.066c-1.168,1.444-2.107,2.813-2.818,4.077c-0.71,1.265-1.155,2.322-1.339,3.15
			c-0.183,0.828-0.083,1.27,0.275,1.292c0.447,0.027,1.043-0.212,1.753-0.674c0.711-0.462,1.468-1.069,2.269-1.813
			c0.802-0.744,1.614-1.581,2.438-2.501c0.825-0.919,1.572-1.826,2.236-2.725c0.664-0.898,1.227-1.761,1.685-2.593
			c0.458-0.831,0.754-1.551,0.827-2.13c0.057-0.448,0.41-0.808,1.098-1.029s1.408-0.298,2.164-0.244
			c0.756,0.055,1.435,0.24,2.03,0.553C346.444,330.119,346.671,330.568,346.537,331.157z"/>
		<path fill="#DD12C5" d="M360.492,325.733c-0.034,0.392-0.046,0.912,0,1.522c0.046,0.611,0.18,2.008,0.208,2.021
			c0.231,0.111,2.688-1.654,3.949-2.415c1.26-0.761,2.419-1.454,3.474-2.089c1.054-0.635,1.984-1.193,2.786-1.688
			c0.802-0.495,1.464-0.92,1.958-1.291c0.686-0.515,1.42-0.78,2.199-0.773s1.398,0.167,1.856,0.473s0.662,0.701,0.617,1.194
			c-0.046,0.493-0.551,0.993-1.511,1.491c-0.408,0.212-1.087,0.531-2.026,0.983c-0.939,0.452-2.076,0.993-3.405,1.643
			c-1.329,0.65-2.798,1.394-4.401,2.251c-1.605,0.857-4.64,2.043-5.017,2.81c-0.141,0.287,0.207,1.378,0.344,2.013
			s0.241,1.209,0.344,1.684c0.12,0.557,0.251,1.094,0.344,1.579c6.188-4.767,9.281-6.823,15.469-10.283
			c0.641-0.435,1.271-0.721,1.891-0.868c0.618-0.147,1.077-0.181,1.375-0.103c0.297,0.077,0.412,0.248,0.344,0.514
			c-0.069,0.266-0.482,0.604-1.203,1.039c-1.416,0.854-2.98,1.833-4.676,2.884c-1.695,1.051-3.323,2.104-4.881,3.148
			c-1.559,1.044-2.934,2.024-4.125,2.907c-1.192,0.884-1.994,1.558-2.406,1.987s-0.871,0.803-1.375,1.123
			c-0.505,0.319-1.007,0.519-1.511,0.592c-0.505,0.073-0.976-0.022-1.411-0.293c-0.437-0.271-0.789-0.801-1.065-1.576
			c-0.227-0.634-0.46-1.293-0.689-1.97c-0.229-0.677-0.598-2.003-0.684-2.034c-0.515-0.184-4.275,2.742-6.361,4.16
			c-2.085,1.419-3.955,2.765-5.605,4.003c-1.649,1.238-3.024,2.313-4.125,3.192c-1.1,0.877-1.771,1.431-1.991,1.631
			c-0.412,0.375-0.825,0.65-1.238,0.772c-0.412,0.122-0.732,0.141-0.962,0.055c-0.229-0.087-0.332-0.278-0.31-0.574
			c0.023-0.296,0.238-0.652,0.651-1.035c0.18-0.167,0.861-0.75,2.03-1.716c1.168-0.967,2.646-2.174,4.434-3.572
			c1.788-1.399,3.793-2.919,6.016-4.517c2.224-1.597,6.373-3.706,6.703-4.639c0.184-0.518-0.797-2.374-1.168-3.123
			c-0.483-0.975-0.504-1.87,0-2.626c0.504-0.756,1.146-1.295,1.927-1.624c0.778-0.329,1.52-0.404,2.23-0.243
			C360.203,324.513,360.557,324.995,360.492,325.733z"/>
	</g>
</g>
</svg>
